<?xml version="1.0" encoding="utf-8"?>
<!-- Generator: Adobe Illustrator 17.0.0, SVG Export Plug-In . SVG Version: 6.00 Build 0)  -->
<!DOCTYPE svg PUBLIC "-//W3C//DTD SVG 1.1//EN" "http://www.w3.org/Graphics/SVG/1.1/DTD/svg11.dtd">
<svg id="Norges_Bank_Investment_Management" width="386.492" height="35.972" viewBox="0 0 386.492 35.972" xmlns="http://www.w3.org/2000/svg"><g id="svgGroup" stroke-linecap="round" fill-rule="evenodd" font-size="9pt" stroke="#ffffff" stroke-width="0.25mm" fill="#434e57" style="stroke:#ffffff;stroke-width:0.25mm;fill:#434e57"><path d="M 23.322 2.714 L 23.828 14.398 L 18.676 14.996 A 48.211 48.211 0 0 0 18.717 14.323 A 41.074 41.074 0 0 0 18.745 13.685 A 33.956 33.956 0 0 0 18.765 12.936 A 28.402 28.402 0 0 0 18.768 12.512 A 12.972 12.972 0 0 0 18.67 10.855 Q 18.561 10.017 18.334 9.329 A 5.337 5.337 0 0 0 17.756 8.096 Q 16.744 6.532 14.122 6.532 Q 6.392 6.532 6.043 18.318 A 38.553 38.553 0 0 0 6.026 19.458 Q 6.026 21.818 6.336 23.638 A 15.265 15.265 0 0 0 6.555 24.702 A 11.762 11.762 0 0 0 7.073 26.326 Q 7.514 27.415 8.142 28.221 Q 9.2 29.578 10.787 30.199 A 8.794 8.794 0 0 0 12.726 30.701 A 11.886 11.886 0 0 0 14.444 30.82 Q 16.698 30.82 18.906 30.153 Q 21.114 29.486 23.184 28.704 L 23.184 33.58 A 12.694 12.694 0 0 1 20.012 35.034 A 15.771 15.771 0 0 1 18.354 35.443 A 29.277 29.277 0 0 1 14.318 35.939 A 25.795 25.795 0 0 1 13.018 35.972 Q 10.442 35.972 8.073 35.397 Q 5.704 34.822 3.91 33.143 Q 2.285 31.621 1.263 29.023 A 17.024 17.024 0 0 1 1.058 28.474 A 15.966 15.966 0 0 1 0.416 25.987 Q 0 23.682 0 20.654 A 35.991 35.991 0 0 1 0.293 15.9 Q 1.042 10.298 3.703 7.107 A 12.057 12.057 0 0 1 11.261 2.896 A 17.776 17.776 0 0 1 14.168 2.668 A 25.637 25.637 0 0 1 15.564 2.704 Q 16.218 2.739 16.779 2.811 A 11.252 11.252 0 0 1 17.595 2.944 A 14.544 14.544 0 0 0 18.901 3.151 A 10.993 10.993 0 0 0 20.102 3.22 Q 20.884 3.22 21.666 3.082 A 19.138 19.138 0 0 0 22.68 2.874 A 23.22 23.22 0 0 0 23.322 2.714 Z M 109.342 2.714 L 109.848 14.398 L 104.696 14.996 A 48.211 48.211 0 0 0 104.737 14.323 A 41.074 41.074 0 0 0 104.765 13.685 A 33.956 33.956 0 0 0 104.785 12.936 A 28.402 28.402 0 0 0 104.788 12.512 A 12.972 12.972 0 0 0 104.69 10.855 Q 104.581 10.017 104.354 9.329 A 5.337 5.337 0 0 0 103.776 8.096 Q 102.764 6.532 100.142 6.532 Q 92.412 6.532 92.063 18.318 A 38.553 38.553 0 0 0 92.046 19.458 Q 92.046 21.818 92.356 23.638 A 15.265 15.265 0 0 0 92.575 24.702 A 11.762 11.762 0 0 0 93.093 26.326 Q 93.534 27.415 94.162 28.221 Q 95.22 29.578 96.807 30.199 A 8.794 8.794 0 0 0 98.746 30.701 A 11.886 11.886 0 0 0 100.464 30.82 Q 102.718 30.82 104.926 30.153 Q 107.134 29.486 109.204 28.704 L 109.204 33.58 A 12.694 12.694 0 0 1 106.032 35.034 A 15.771 15.771 0 0 1 104.374 35.443 A 29.277 29.277 0 0 1 100.338 35.939 A 25.795 25.795 0 0 1 99.038 35.972 Q 96.462 35.972 94.093 35.397 Q 91.724 34.822 89.93 33.143 Q 88.305 31.621 87.283 29.023 A 17.024 17.024 0 0 1 87.078 28.474 A 15.966 15.966 0 0 1 86.436 25.987 Q 86.02 23.682 86.02 20.654 A 35.991 35.991 0 0 1 86.313 15.9 Q 87.062 10.298 89.723 7.107 A 12.057 12.057 0 0 1 97.281 2.896 A 17.776 17.776 0 0 1 100.188 2.668 A 25.637 25.637 0 0 1 101.584 2.704 Q 102.238 2.739 102.799 2.811 A 11.252 11.252 0 0 1 103.615 2.944 A 14.544 14.544 0 0 0 104.921 3.151 A 10.993 10.993 0 0 0 106.122 3.22 Q 106.904 3.22 107.686 3.082 A 19.138 19.138 0 0 0 108.7 2.874 A 23.22 23.22 0 0 0 109.342 2.714 Z M 135.516 15.594 L 140.898 11.868 A 36.895 36.895 0 0 1 141.537 12.823 Q 141.842 13.297 142.091 13.722 A 18.044 18.044 0 0 1 142.37 14.214 A 9.127 9.127 0 0 1 143.196 16.276 A 8.96 8.96 0 0 1 143.198 16.284 A 27.014 27.014 0 0 1 144.033 15.434 A 34.497 34.497 0 0 1 144.762 14.743 Q 145.636 13.938 146.625 13.317 Q 147.614 12.696 148.764 12.282 Q 149.914 11.868 151.156 11.868 Q 152.306 11.868 153.387 12.282 A 4.602 4.602 0 0 1 155.004 13.346 A 5.588 5.588 0 0 1 155.296 13.662 A 5.582 5.582 0 0 1 155.959 14.639 Q 156.346 15.353 156.63 16.284 Q 157.136 17.94 157.136 20.424 A 49.998 49.998 0 0 1 157.135 20.783 Q 157.131 21.379 157.113 22.31 A 169.667 169.667 0 0 1 157.085 23.592 A 203.779 203.779 0 0 1 157.044 24.955 A 186.587 186.587 0 0 0 156.988 26.995 A 163.842 163.842 0 0 0 156.975 27.646 A 224.912 224.912 0 0 0 156.965 28.253 Q 156.952 29.107 156.952 29.624 A 20.254 20.254 0 0 0 157.111 32.193 A 18.359 18.359 0 0 0 157.159 32.545 A 9.166 9.166 0 0 0 157.367 33.567 Q 157.502 34.076 157.691 34.5 A 4.819 4.819 0 0 0 157.872 34.868 L 151.478 35.972 A 9.212 9.212 0 0 1 151.155 34.43 A 11.059 11.059 0 0 1 151.087 33.672 Q 151.035 32.721 151.022 31.959 A 27.669 27.669 0 0 1 151.018 31.51 A 52.098 52.098 0 0 1 151.087 28.87 L 151.087 28.865 Q 151.156 27.508 151.225 26.243 Q 151.294 24.978 151.363 23.851 A 43.145 43.145 0 0 0 151.405 23.048 Q 151.422 22.651 151.429 22.301 A 22.497 22.497 0 0 0 151.432 21.896 Q 151.432 19.746 150.855 18.664 A 2.432 2.432 0 0 0 150.512 18.17 A 3.023 3.023 0 0 0 148.744 17.221 A 4.393 4.393 0 0 0 147.982 17.158 A 7.518 7.518 0 0 0 146.358 17.328 A 6.466 6.466 0 0 0 145.521 17.572 A 9.74 9.74 0 0 0 144.219 18.157 A 8.084 8.084 0 0 0 143.52 18.584 Q 143.612 19.458 143.612 20.516 L 143.612 22.954 L 143.612 26.772 A 227.162 227.162 0 0 0 143.618 28.417 A 182.772 182.772 0 0 0 143.635 29.946 Q 143.658 31.418 143.681 32.729 Q 143.704 34.04 143.75 35.42 L 137.54 35.42 A 253.229 253.229 0 0 0 137.585 34.286 Q 137.609 33.648 137.632 32.936 A 235.89 235.89 0 0 1 137.684 31.516 A 278.51 278.51 0 0 1 137.747 30.015 Q 137.816 28.474 137.862 26.841 Q 137.908 25.208 137.908 23.69 A 60.628 60.628 0 0 0 137.903 22.835 Q 137.888 21.786 137.835 21.014 A 19.18 19.18 0 0 0 137.816 20.769 A 10.667 10.667 0 0 0 137.701 19.836 Q 137.604 19.27 137.448 18.791 A 6.663 6.663 0 0 0 136.72 17.238 A 6.295 6.295 0 0 0 136.712 17.227 A 14.797 14.797 0 0 0 136.329 16.663 Q 136.108 16.354 135.846 16.014 A 29.094 29.094 0 0 0 135.516 15.594 Z M 288.006 32.246 L 282.624 35.972 A 46.478 46.478 0 0 1 281.986 35.023 Q 281.497 34.276 281.152 33.672 Q 280.6 32.706 280.324 31.648 Q 279.634 32.43 278.852 33.189 Q 278.07 33.948 277.127 34.569 Q 276.184 35.19 275.126 35.581 A 6.371 6.371 0 0 1 273.361 35.953 A 7.529 7.529 0 0 1 272.826 35.972 Q 271.676 35.972 270.595 35.558 A 4.602 4.602 0 0 1 268.978 34.494 A 5.588 5.588 0 0 1 268.686 34.178 A 5.582 5.582 0 0 1 268.024 33.201 Q 267.637 32.488 267.352 31.556 Q 266.846 29.9 266.846 27.416 A 45.826 45.826 0 0 1 266.848 27.075 Q 266.852 26.516 266.869 25.599 A 286.922 286.922 0 0 1 266.869 25.553 Q 266.892 24.288 266.938 22.885 A 186.587 186.587 0 0 0 266.994 20.845 A 163.842 163.842 0 0 0 267.007 20.194 A 224.912 224.912 0 0 0 267.017 19.587 Q 267.03 18.734 267.03 18.216 A 20.254 20.254 0 0 0 266.872 15.648 A 18.359 18.359 0 0 0 266.823 15.295 A 9.166 9.166 0 0 0 266.616 14.273 Q 266.48 13.764 266.292 13.34 A 4.819 4.819 0 0 0 266.11 12.972 L 272.412 11.868 A 9.212 9.212 0 0 1 272.736 13.41 A 11.059 11.059 0 0 1 272.803 14.168 Q 272.856 15.119 272.869 15.881 A 27.669 27.669 0 0 1 272.872 16.33 Q 272.872 17.664 272.803 18.998 Q 272.734 20.332 272.665 21.597 Q 272.596 22.862 272.527 23.989 A 43.145 43.145 0 0 0 272.485 24.792 Q 272.469 25.189 272.462 25.54 A 22.497 22.497 0 0 0 272.458 25.944 Q 272.458 28.095 273.036 29.176 A 2.432 2.432 0 0 0 273.378 29.67 Q 274.298 30.682 275.908 30.682 A 6.489 6.489 0 0 0 277.004 30.594 Q 277.665 30.481 278.208 30.222 Q 279.174 29.762 279.956 29.118 Q 279.912 28.316 279.91 27.321 A 46.07 46.07 0 0 1 279.91 27.255 L 279.91 24.886 L 279.91 21.068 A 227.147 227.147 0 0 0 279.905 19.424 A 182.777 182.777 0 0 0 279.887 17.894 Q 279.864 16.422 279.841 15.111 Q 279.818 13.8 279.772 12.42 L 285.982 12.42 A 253.229 253.229 0 0 0 285.938 13.554 Q 285.914 14.193 285.89 14.904 Q 285.844 16.284 285.775 17.825 Q 285.706 19.366 285.66 20.999 Q 285.614 22.632 285.614 24.15 Q 285.614 25.755 285.688 26.826 A 19.18 19.18 0 0 0 285.706 27.071 A 10.667 10.667 0 0 0 285.822 28.004 Q 285.919 28.57 286.074 29.049 A 6.663 6.663 0 0 0 286.803 30.602 A 6.295 6.295 0 0 0 286.81 30.613 A 14.797 14.797 0 0 0 287.194 31.177 Q 287.414 31.486 287.677 31.826 A 29.094 29.094 0 0 0 288.006 32.246 Z M 349.14 32.246 L 343.758 35.972 A 46.478 46.478 0 0 1 343.12 35.023 Q 342.631 34.276 342.286 33.672 Q 341.734 32.706 341.458 31.648 Q 340.768 32.43 339.986 33.189 Q 339.204 33.948 338.261 34.569 Q 337.318 35.19 336.26 35.581 A 6.371 6.371 0 0 1 334.495 35.953 A 7.529 7.529 0 0 1 333.96 35.972 Q 332.81 35.972 331.729 35.558 A 4.602 4.602 0 0 1 330.112 34.494 A 5.588 5.588 0 0 1 329.82 34.178 A 5.582 5.582 0 0 1 329.158 33.201 Q 328.771 32.488 328.486 31.556 Q 327.98 29.9 327.98 27.416 A 45.826 45.826 0 0 1 327.982 27.075 Q 327.986 26.516 328.003 25.599 A 286.922 286.922 0 0 1 328.003 25.553 Q 328.026 24.288 328.072 22.885 A 186.587 186.587 0 0 0 328.128 20.845 A 163.842 163.842 0 0 0 328.141 20.194 A 224.912 224.912 0 0 0 328.151 19.587 Q 328.164 18.734 328.164 18.216 A 20.254 20.254 0 0 0 328.006 15.648 A 18.359 18.359 0 0 0 327.957 15.295 A 9.166 9.166 0 0 0 327.75 14.273 Q 327.614 13.764 327.426 13.34 A 4.819 4.819 0 0 0 327.244 12.972 L 333.546 11.868 A 9.212 9.212 0 0 1 333.87 13.41 A 11.059 11.059 0 0 1 333.937 14.168 Q 333.99 15.119 334.003 15.881 A 27.669 27.669 0 0 1 334.006 16.33 Q 334.006 17.664 333.937 18.998 Q 333.868 20.332 333.799 21.597 Q 333.73 22.862 333.661 23.989 A 43.145 43.145 0 0 0 333.619 24.792 Q 333.603 25.189 333.596 25.54 A 22.497 22.497 0 0 0 333.592 25.944 Q 333.592 28.095 334.17 29.176 A 2.432 2.432 0 0 0 334.512 29.67 Q 335.432 30.682 337.042 30.682 A 6.489 6.489 0 0 0 338.138 30.594 Q 338.799 30.481 339.342 30.222 Q 340.308 29.762 341.09 29.118 Q 341.046 28.316 341.044 27.321 A 46.07 46.07 0 0 1 341.044 27.255 L 341.044 24.886 L 341.044 21.068 A 227.147 227.147 0 0 0 341.039 19.424 A 182.777 182.777 0 0 0 341.021 17.894 Q 340.998 16.422 340.975 15.111 Q 340.952 13.8 340.906 12.42 L 347.116 12.42 A 253.229 253.229 0 0 0 347.072 13.554 Q 347.048 14.193 347.024 14.904 Q 346.978 16.284 346.909 17.825 Q 346.84 19.366 346.794 20.999 Q 346.748 22.632 346.748 24.15 Q 346.748 25.755 346.822 26.826 A 19.18 19.18 0 0 0 346.84 27.071 A 10.667 10.667 0 0 0 346.956 28.004 Q 347.053 28.57 347.208 29.049 A 6.663 6.663 0 0 0 347.937 30.602 A 6.295 6.295 0 0 0 347.944 30.613 A 14.797 14.797 0 0 0 348.328 31.177 Q 348.548 31.486 348.811 31.826 A 29.094 29.094 0 0 0 349.14 32.246 Z M 29.21 3.68 Q 30.176 3.496 31.326 3.312 Q 32.476 3.128 33.695 2.99 Q 34.914 2.852 36.156 2.783 A 44.456 44.456 0 0 1 37.968 2.718 A 39.499 39.499 0 0 1 38.548 2.714 Q 41.031 2.714 42.895 3.083 A 12.674 12.674 0 0 1 44.252 3.427 A 13.676 13.676 0 0 1 45.81 4.02 Q 46.59 4.376 47.211 4.802 A 7.023 7.023 0 0 1 47.817 5.267 A 6.88 6.88 0 0 1 48.913 6.443 A 5.457 5.457 0 0 1 49.634 7.797 Q 50.14 9.2 50.14 10.58 Q 50.14 11.822 49.772 13.064 Q 49.404 14.306 48.622 15.364 A 6.802 6.802 0 0 1 47.12 16.835 A 8.131 8.131 0 0 1 46.598 17.181 A 7.303 7.303 0 0 1 44.914 17.927 A 9.545 9.545 0 0 1 43.654 18.216 A 12.75 12.75 0 0 1 45.454 18.496 Q 46.469 18.734 47.311 19.136 A 9.004 9.004 0 0 1 48.878 20.081 A 7.4 7.4 0 0 1 49.864 20.976 Q 50.876 22.08 51.336 23.46 Q 51.796 24.84 51.796 26.358 Q 51.796 28.198 51.083 29.923 A 7.053 7.053 0 0 1 49.636 32.11 A 9.122 9.122 0 0 1 48.668 32.982 Q 47.266 34.082 45.097 34.822 A 19.457 19.457 0 0 1 44.137 35.121 Q 41.942 35.746 38.931 35.886 A 38.981 38.981 0 0 1 37.122 35.926 Q 36.321 35.926 35.326 35.905 A 114.746 114.746 0 0 1 35.259 35.903 Q 34.224 35.88 33.143 35.811 Q 32.062 35.742 31.004 35.65 Q 29.946 35.558 29.072 35.42 L 29.233 31.556 A 190.54 190.54 0 0 0 29.297 29.848 A 227.16 227.16 0 0 0 29.348 28.037 A 235.289 235.289 0 0 0 29.386 26.179 Q 29.403 25.203 29.414 24.117 A 394.39 394.39 0 0 0 29.417 23.805 A 383.586 383.586 0 0 0 29.427 22.539 Q 29.44 20.516 29.44 17.756 A 517.069 517.069 0 0 0 29.405 11.802 A 565.857 565.857 0 0 0 29.394 10.925 Q 29.348 7.406 29.21 3.68 Z M 160.724 15.686 L 160.402 12.788 L 163.99 12.604 A 74.5 74.5 0 0 0 164.031 11.805 A 59.453 59.453 0 0 0 164.059 11.063 Q 164.082 10.35 164.174 9.66 Q 164.404 6.67 164.864 5.014 A 8.03 8.03 0 0 1 165.334 3.731 Q 165.676 3.009 166.142 2.462 A 4.888 4.888 0 0 1 166.244 2.346 A 6.343 6.343 0 0 1 168.467 0.735 A 7.524 7.524 0 0 1 168.797 0.598 Q 170.338 0 171.948 0 Q 173.144 0 174.202 0.345 Q 175.26 0.69 176.41 1.426 L 175.904 5.52 Q 174.846 5.106 173.88 4.899 Q 173.076 4.727 172.431 4.698 A 5.659 5.659 0 0 0 172.178 4.692 A 4.033 4.033 0 0 0 171.627 4.728 Q 171.332 4.768 171.084 4.856 A 2.173 2.173 0 0 0 170.867 4.945 A 1.866 1.866 0 0 0 170.233 5.448 A 2.507 2.507 0 0 0 169.993 5.796 Q 169.74 6.235 169.599 6.896 A 6.866 6.866 0 0 0 169.51 7.406 Q 169.372 8.418 169.372 9.936 L 169.372 12.42 L 174.34 12.42 L 173.926 16.33 L 169.372 16.008 L 169.372 27.462 L 169.372 29.716 A 40.682 40.682 0 0 0 169.408 31.434 A 36.635 36.635 0 0 0 169.418 31.671 Q 169.464 32.614 169.487 33.534 Q 169.51 34.454 169.602 35.42 L 163.898 35.42 L 163.898 28.428 L 163.898 22.977 Q 163.898 21.348 163.909 20.002 A 237.79 237.79 0 0 1 163.921 18.837 A 301.56 301.56 0 0 0 163.937 17.362 Q 163.943 16.687 163.944 16.082 A 175.694 175.694 0 0 0 163.944 15.686 L 160.724 15.686 Z M 56.626 3.68 Q 58.466 3.312 61.157 2.99 Q 63.848 2.668 67.068 2.668 A 20.001 20.001 0 0 1 70.476 2.945 A 15.254 15.254 0 0 1 73.531 3.795 A 13.649 13.649 0 0 1 77.533 6.219 A 12.861 12.861 0 0 1 78.338 6.992 A 13.443 13.443 0 0 1 81.005 11.107 A 15.911 15.911 0 0 1 81.351 12.006 Q 82.386 14.95 82.386 18.538 A 21.246 21.246 0 0 1 81.893 23.188 A 18.37 18.37 0 0 1 81.213 25.507 A 16.873 16.873 0 0 1 78.97 29.731 A 15.368 15.368 0 0 1 77.901 31.027 Q 75.762 33.35 72.772 34.661 A 15.605 15.605 0 0 1 68.118 35.868 A 19.154 19.154 0 0 1 66.102 35.972 A 107.544 107.544 0 0 1 63.462 35.941 Q 61.852 35.902 60.467 35.811 A 80.576 80.576 0 0 1 59.296 35.726 Q 57.862 35.611 56.819 35.468 A 24.707 24.707 0 0 1 56.488 35.42 A 243.893 243.893 0 0 1 56.533 33.589 Q 56.565 32.478 56.603 31.533 A 215.741 215.741 0 0 0 56.694 28.937 A 242.445 242.445 0 0 0 56.718 28.037 Q 56.758 26.476 56.797 24.523 A 1012.056 1012.056 0 0 0 56.81 23.874 Q 56.854 21.645 56.856 18.336 A 532.288 532.288 0 0 0 56.856 17.986 Q 56.856 14.444 56.81 10.925 Q 56.764 7.406 56.626 3.68 Z M 307.51 11.914 L 308.016 20.838 L 303.508 21.436 A 23.722 23.722 0 0 0 303.549 20.993 A 18.504 18.504 0 0 0 303.577 20.585 A 12.893 12.893 0 0 0 303.595 20.177 A 16.405 16.405 0 0 0 303.6 19.734 A 11.291 11.291 0 0 0 303.537 18.492 Q 303.396 17.225 302.942 16.463 A 2.68 2.68 0 0 0 302.703 16.123 Q 302.112 15.41 301.47 15.167 A 1.896 1.896 0 0 0 300.794 15.042 A 3.212 3.212 0 0 0 298.15 16.309 A 5.048 5.048 0 0 0 297.528 17.342 A 9.149 9.149 0 0 0 296.97 18.991 Q 296.541 20.749 296.48 23.262 A 35.056 35.056 0 0 0 296.47 24.104 Q 296.47 27.308 297.35 28.985 A 4.248 4.248 0 0 0 297.689 29.532 A 3.958 3.958 0 0 0 300.481 31.139 A 5.897 5.897 0 0 0 301.254 31.188 Q 302.864 31.188 304.451 30.613 Q 306.038 30.038 307.234 29.532 L 307.234 33.58 A 8.144 8.144 0 0 1 303.969 35.374 A 9.535 9.535 0 0 1 303.715 35.443 Q 301.668 35.972 299.552 35.972 A 13.518 13.518 0 0 1 296.217 35.558 Q 294.584 35.144 293.319 34.017 A 6.507 6.507 0 0 1 292.179 32.661 Q 291.665 31.859 291.272 30.82 A 10.531 10.531 0 0 1 290.796 29.093 Q 290.49 27.508 290.49 25.438 A 26.452 26.452 0 0 1 290.633 22.615 Q 290.819 20.881 291.249 19.435 A 14.223 14.223 0 0 1 292.081 17.267 A 10.382 10.382 0 0 1 293.388 15.203 A 9.005 9.005 0 0 1 295.73 13.163 A 8.44 8.44 0 0 1 296.631 12.696 A 9.735 9.735 0 0 1 300.122 11.883 A 11.426 11.426 0 0 1 300.702 11.868 Q 302.128 11.868 303.071 12.121 A 7.305 7.305 0 0 0 304.264 12.332 A 9.382 9.382 0 0 0 305.164 12.374 Q 305.67 12.374 306.13 12.282 Q 306.586 12.191 307.494 11.919 A 40.542 40.542 0 0 0 307.51 11.914 Z M 204.654 23 L 204.654 20.424 A 8.981 8.981 0 0 0 204.603 19.424 Q 204.479 18.328 204.063 17.689 A 2.122 2.122 0 0 0 203.826 17.388 Q 202.998 16.514 200.974 16.514 A 12.408 12.408 0 0 0 199.187 16.649 A 15.244 15.244 0 0 0 198.053 16.859 A 14.067 14.067 0 0 0 197.067 17.115 Q 196.591 17.259 196.194 17.423 A 6.096 6.096 0 0 0 195.592 17.71 L 194.166 13.294 A 13.005 13.005 0 0 1 194.723 13.087 Q 195.033 12.979 195.385 12.871 A 24.225 24.225 0 0 1 195.822 12.742 A 17.848 17.848 0 0 1 197.216 12.406 A 20.994 20.994 0 0 1 197.892 12.282 Q 198.996 12.098 200.146 11.983 A 24.438 24.438 0 0 1 201.25 11.897 A 18.675 18.675 0 0 1 202.262 11.868 Q 208.654 11.868 209.999 16.799 A 11.339 11.339 0 0 1 210.358 19.78 A 19.167 19.167 0 0 1 210.354 20.165 Q 210.345 20.604 210.318 21.214 A 83.953 83.953 0 0 1 210.289 21.804 A 660.587 660.587 0 0 0 210.186 23.87 A 746.77 746.77 0 0 0 210.151 24.587 Q 210.082 26.036 210.013 27.278 A 87.346 87.346 0 0 0 209.983 27.853 Q 209.948 28.563 209.945 28.941 A 8.774 8.774 0 0 0 209.944 29.026 Q 209.944 29.917 210.173 30.384 A 1.192 1.192 0 0 0 210.266 30.544 A 0.955 0.955 0 0 0 210.699 30.878 Q 210.869 30.948 211.085 30.979 A 2.657 2.657 0 0 0 211.462 31.004 A 4.751 4.751 0 0 0 212.02 30.969 Q 212.402 30.924 212.842 30.82 L 212.106 35.236 Q 211.37 35.466 210.749 35.604 Q 210.128 35.742 209.484 35.742 A 5.073 5.073 0 0 1 208.101 35.562 A 4.007 4.007 0 0 1 206.632 34.799 A 3.69 3.69 0 0 1 205.455 33.031 A 5.235 5.235 0 0 1 205.252 32.108 Q 204.332 33.902 202.676 34.937 Q 201.02 35.972 198.95 35.972 A 6.876 6.876 0 0 1 196.744 35.633 A 5.707 5.707 0 0 1 194.281 33.994 A 6.645 6.645 0 0 1 194.254 33.963 Q 192.51 31.991 192.51 28.842 A 9.19 9.19 0 0 1 192.781 26.548 A 6.533 6.533 0 0 1 194.442 23.552 A 6.452 6.452 0 0 1 198.144 21.685 A 9.156 9.156 0 0 1 199.594 21.574 Q 200.928 21.574 202.262 21.942 A 8.826 8.826 0 0 1 204.002 22.619 A 7.77 7.77 0 0 1 204.654 23 Z M 229.218 12.742 L 229.218 17.618 A 15.817 15.817 0 0 0 227.887 17.215 A 17.849 17.849 0 0 0 227.562 17.135 A 26.112 26.112 0 0 0 226.068 16.826 A 23.594 23.594 0 0 0 225.86 16.79 A 23.709 23.709 0 0 0 224.861 16.645 A 19.576 19.576 0 0 0 224.296 16.583 A 21.161 21.161 0 0 0 223.863 16.547 Q 223.431 16.515 223.121 16.514 A 6.232 6.232 0 0 0 223.1 16.514 A 6.339 6.339 0 0 0 222.063 16.591 Q 220.156 16.909 220.156 18.538 A 2.474 2.474 0 0 0 220.357 19.552 Q 220.606 20.114 221.166 20.504 A 3.18 3.18 0 0 0 221.444 20.677 Q 222.493 21.258 223.939 21.823 A 32.87 32.87 0 0 0 224.618 22.08 A 17.559 17.559 0 0 1 226.525 22.893 A 15.906 15.906 0 0 1 226.78 23.023 Q 227.792 23.552 228.551 24.357 A 5.359 5.359 0 0 1 229.426 25.615 A 6.752 6.752 0 0 1 229.747 26.358 Q 230.125 27.391 230.176 28.8 A 12.471 12.471 0 0 1 230.184 29.256 A 9.975 9.975 0 0 1 230.014 31.166 Q 229.806 32.23 229.344 33.047 A 4.72 4.72 0 0 1 228.252 34.362 A 6.76 6.76 0 0 1 225.305 35.764 A 9.746 9.746 0 0 1 223.238 35.972 Q 221.582 35.972 219.604 35.512 A 17.583 17.583 0 0 1 215.936 34.205 A 19.568 19.568 0 0 1 215.694 34.086 L 215.51 28.888 A 6.438 6.438 0 0 0 216.049 29.221 Q 216.32 29.371 216.635 29.518 A 12.325 12.325 0 0 0 217.028 29.693 A 16.007 16.007 0 0 0 218.486 30.228 A 18.487 18.487 0 0 0 219.006 30.383 Q 220.064 30.682 221.099 30.889 A 11.765 11.765 0 0 0 221.965 31.031 Q 222.414 31.086 222.815 31.094 A 6.847 6.847 0 0 0 222.962 31.096 A 5.196 5.196 0 0 0 223.595 31.06 Q 224.397 30.962 224.802 30.59 A 1.65 1.65 0 0 0 225.298 29.711 A 2.495 2.495 0 0 0 225.354 29.164 A 2.873 2.873 0 0 0 225.32 28.709 Q 225.28 28.459 225.193 28.251 A 1.649 1.649 0 0 0 225.147 28.152 A 1.903 1.903 0 0 0 224.782 27.654 A 2.48 2.48 0 0 0 224.503 27.416 A 4.316 4.316 0 0 0 224.107 27.158 Q 223.906 27.042 223.671 26.929 A 8.406 8.406 0 0 0 223.376 26.795 Q 222.902 26.59 222.297 26.351 A 55.489 55.489 0 0 0 221.72 26.128 Q 220.616 25.714 219.489 25.208 Q 218.362 24.702 217.465 23.92 A 5.36 5.36 0 0 1 216.395 22.627 A 6.71 6.71 0 0 1 216.016 21.896 A 5.839 5.839 0 0 1 215.641 20.698 Q 215.521 20.112 215.483 19.431 A 11.739 11.739 0 0 1 215.464 18.768 Q 215.464 17.115 215.942 15.939 A 4.722 4.722 0 0 1 216.315 15.203 A 6.67 6.67 0 0 1 217.447 13.826 A 5.744 5.744 0 0 1 218.408 13.11 Q 219.65 12.374 221.076 12.121 A 17.428 17.428 0 0 1 222.445 11.931 A 13.068 13.068 0 0 1 223.698 11.868 Q 225.032 11.868 226.596 12.098 Q 227.794 12.274 228.695 12.558 A 8.217 8.217 0 0 1 229.218 12.742 Z M 232.76 15.686 L 232.438 12.788 A 10.115 10.115 0 0 0 233.458 12.677 Q 233.96 12.595 234.382 12.463 A 4.756 4.756 0 0 0 234.922 12.259 Q 235.888 11.822 236.509 10.971 A 5.639 5.639 0 0 0 237.009 10.134 Q 237.216 9.713 237.391 9.212 A 10.909 10.909 0 0 0 237.544 8.74 Q 237.861 7.684 238.178 6.303 A 61.219 61.219 0 0 0 238.372 5.428 L 242.65 4.186 A 131.268 131.268 0 0 0 242.323 6.285 Q 242.136 7.561 242.006 8.648 Q 241.776 10.58 241.592 12.42 L 246.56 12.42 L 246.146 16.33 L 241.362 16.008 A 157.927 157.927 0 0 0 241.207 18.659 A 121.664 121.664 0 0 0 241.109 21.091 Q 241.062 22.688 241.047 23.97 A 95.381 95.381 0 0 0 241.04 25.07 A 50.862 50.862 0 0 0 241.052 26.175 Q 241.076 27.308 241.155 28.083 Q 241.263 29.142 241.493 29.754 A 2.984 2.984 0 0 0 241.523 29.831 A 2.204 2.204 0 0 0 241.704 30.186 Q 241.916 30.518 242.213 30.659 Q 242.553 30.82 243.046 30.856 A 4.066 4.066 0 0 0 243.34 30.866 Q 244.26 30.866 245.134 30.613 Q 245.916 30.387 246.477 30.069 A 4.229 4.229 0 0 0 246.606 29.992 L 245.916 34.776 A 13.701 13.701 0 0 1 244.879 35.285 Q 244.361 35.512 243.878 35.663 A 8.408 8.408 0 0 1 243.846 35.673 Q 243.012 35.931 241.904 35.966 A 11.247 11.247 0 0 1 241.546 35.972 A 8.491 8.491 0 0 1 240.209 35.872 A 6.206 6.206 0 0 1 238.878 35.512 A 4.184 4.184 0 0 1 237.066 34.104 A 5.055 5.055 0 0 1 236.969 33.971 A 6.027 6.027 0 0 1 236.353 32.838 Q 236.119 32.281 235.949 31.618 A 11.307 11.307 0 0 1 235.842 31.165 A 14.788 14.788 0 0 1 235.618 29.765 Q 235.528 28.98 235.495 28.079 A 30.066 30.066 0 0 1 235.474 26.956 Q 235.474 25.533 235.572 23.675 A 108.164 108.164 0 0 1 235.681 21.896 A 2771.238 2771.238 0 0 1 236.005 17.282 A 3094.274 3094.274 0 0 1 236.118 15.686 L 232.76 15.686 Z M 310.592 15.686 L 310.27 12.788 A 10.115 10.115 0 0 0 311.29 12.677 Q 311.792 12.595 312.214 12.463 A 4.756 4.756 0 0 0 312.754 12.259 Q 313.72 11.822 314.341 10.971 A 5.639 5.639 0 0 0 314.841 10.134 Q 315.048 9.713 315.223 9.212 A 10.909 10.909 0 0 0 315.376 8.74 Q 315.693 7.684 316.01 6.303 A 61.219 61.219 0 0 0 316.204 5.428 L 320.482 4.186 A 131.268 131.268 0 0 0 320.155 6.285 Q 319.968 7.561 319.838 8.648 Q 319.608 10.58 319.424 12.42 L 324.392 12.42 L 323.978 16.33 L 319.194 16.008 A 157.927 157.927 0 0 0 319.039 18.659 A 121.664 121.664 0 0 0 318.941 21.091 Q 318.894 22.688 318.879 23.97 A 95.381 95.381 0 0 0 318.872 25.07 A 50.862 50.862 0 0 0 318.884 26.175 Q 318.908 27.308 318.987 28.083 Q 319.095 29.142 319.325 29.754 A 2.984 2.984 0 0 0 319.355 29.831 A 2.204 2.204 0 0 0 319.536 30.186 Q 319.748 30.518 320.045 30.659 Q 320.385 30.82 320.878 30.856 A 4.066 4.066 0 0 0 321.172 30.866 Q 322.092 30.866 322.966 30.613 Q 323.748 30.387 324.309 30.069 A 4.229 4.229 0 0 0 324.438 29.992 L 323.748 34.776 A 13.701 13.701 0 0 1 322.711 35.285 Q 322.193 35.512 321.71 35.663 A 8.408 8.408 0 0 1 321.678 35.673 Q 320.844 35.931 319.736 35.966 A 11.247 11.247 0 0 1 319.378 35.972 A 8.491 8.491 0 0 1 318.041 35.872 A 6.206 6.206 0 0 1 316.71 35.512 A 4.184 4.184 0 0 1 314.898 34.104 A 5.055 5.055 0 0 1 314.801 33.971 A 6.027 6.027 0 0 1 314.185 32.838 Q 313.951 32.281 313.781 31.618 A 11.307 11.307 0 0 1 313.674 31.165 A 14.788 14.788 0 0 1 313.45 29.765 Q 313.36 28.98 313.327 28.079 A 30.066 30.066 0 0 1 313.306 26.956 Q 313.306 25.533 313.404 23.675 A 108.164 108.164 0 0 1 313.513 21.896 A 2771.238 2771.238 0 0 1 313.837 17.282 A 3094.274 3094.274 0 0 1 313.95 15.686 L 310.592 15.686 Z M 385.756 25.024 L 374.072 25.024 Q 374.302 28.52 375.498 29.923 A 3.78 3.78 0 0 0 377.356 31.095 Q 377.982 31.279 378.738 31.317 A 7.957 7.957 0 0 0 379.132 31.326 Q 380.972 31.326 382.605 30.774 Q 384.199 30.235 385.245 29.784 A 18.661 18.661 0 0 0 385.296 29.762 L 385.296 33.58 A 7.747 7.747 0 0 1 382.804 35.08 A 9.837 9.837 0 0 1 381.616 35.443 A 19.075 19.075 0 0 1 378.514 35.93 A 16.696 16.696 0 0 1 377.338 35.972 Q 375.636 35.972 373.98 35.558 Q 372.324 35.144 371.013 33.971 A 6.941 6.941 0 0 1 369.796 32.517 Q 369.353 31.822 369 30.963 A 12.185 12.185 0 0 1 368.897 30.705 A 10.457 10.457 0 0 1 368.407 28.951 Q 368.23 28.042 368.153 26.972 A 24.508 24.508 0 0 1 368.092 25.208 A 23.07 23.07 0 0 1 368.251 22.433 Q 368.426 20.989 368.795 19.745 A 13.573 13.573 0 0 1 368.92 19.343 A 13.84 13.84 0 0 1 369.868 17.114 A 10.45 10.45 0 0 1 371.197 15.18 Q 372.646 13.524 374.601 12.696 A 10.598 10.598 0 0 1 378.216 11.884 A 12.392 12.392 0 0 1 378.856 11.868 A 11.245 11.245 0 0 1 380.433 11.972 Q 381.25 12.088 381.93 12.333 A 5.655 5.655 0 0 1 382.697 12.673 A 7.155 7.155 0 0 1 384.14 13.684 A 5.974 5.974 0 0 1 385.043 14.72 Q 385.894 15.962 386.193 17.48 A 15.635 15.635 0 0 1 386.478 19.796 A 13.904 13.904 0 0 1 386.492 20.424 A 18.16 18.16 0 0 1 386.441 21.827 A 13.588 13.588 0 0 1 386.285 23.092 Q 386.14 23.932 385.938 24.546 A 5.467 5.467 0 0 1 385.756 25.024 Z M 175.95 15.318 L 181.332 11.592 A 38.876 38.876 0 0 1 181.999 12.676 Q 182.311 13.205 182.563 13.675 A 18.291 18.291 0 0 1 182.85 14.237 Q 183.402 15.364 183.632 16.606 A 12.967 12.967 0 0 1 184.114 15.934 Q 184.34 15.638 184.603 15.323 A 21.543 21.543 0 0 1 184.782 15.111 A 12.172 12.172 0 0 1 186.224 13.694 A 13.455 13.455 0 0 1 186.346 13.593 A 11.319 11.319 0 0 1 188.212 12.363 A 12.46 12.46 0 0 1 188.278 12.328 Q 189.336 11.776 190.532 11.592 L 190.946 18.124 A 22.852 22.852 0 0 0 188.319 18.269 A 18.698 18.698 0 0 0 186.76 18.515 Q 185.571 18.756 184.8 19.197 A 3.205 3.205 0 0 0 184 19.826 Q 184.046 20.7 184.046 21.735 L 184.046 24.058 Q 184.046 25.53 184.092 27.209 A 191.931 191.931 0 0 0 184.174 29.65 A 168.733 168.733 0 0 0 184.207 30.429 Q 184.276 31.97 184.368 33.304 Q 184.46 34.638 184.552 35.42 L 178.066 35.42 Q 178.112 34.454 178.158 33.166 Q 178.204 31.878 178.25 30.498 Q 178.296 29.118 178.319 27.669 A 181.114 181.114 0 0 0 178.341 25.56 A 159.786 159.786 0 0 0 178.342 24.886 A 84.783 84.783 0 0 0 178.337 23.876 Q 178.322 22.634 178.269 21.708 A 28.173 28.173 0 0 0 178.25 21.413 A 14.996 14.996 0 0 0 178.14 20.334 Q 178.066 19.813 177.958 19.361 A 8.142 8.142 0 0 0 177.882 19.067 A 8.602 8.602 0 0 0 177.365 17.674 A 7.674 7.674 0 0 0 177.146 17.25 Q 176.794 16.616 176.28 15.82 A 41.479 41.479 0 0 0 175.95 15.318 Z M 248.584 15.318 L 253.966 11.592 A 38.876 38.876 0 0 1 254.633 12.676 Q 254.945 13.205 255.197 13.675 A 18.291 18.291 0 0 1 255.484 14.237 Q 256.036 15.364 256.266 16.606 A 12.967 12.967 0 0 1 256.748 15.934 Q 256.974 15.638 257.237 15.323 A 21.543 21.543 0 0 1 257.416 15.111 A 12.172 12.172 0 0 1 258.858 13.694 A 13.455 13.455 0 0 1 258.98 13.593 A 11.319 11.319 0 0 1 260.846 12.363 A 12.46 12.46 0 0 1 260.912 12.328 Q 261.97 11.776 263.166 11.592 L 263.58 18.124 A 22.852 22.852 0 0 0 260.953 18.269 A 18.698 18.698 0 0 0 259.394 18.515 Q 258.205 18.756 257.434 19.197 A 3.205 3.205 0 0 0 256.634 19.826 Q 256.68 20.7 256.68 21.735 L 256.68 24.058 Q 256.68 25.53 256.726 27.209 A 191.931 191.931 0 0 0 256.808 29.65 A 168.733 168.733 0 0 0 256.841 30.429 Q 256.91 31.97 257.002 33.304 Q 257.094 34.638 257.186 35.42 L 250.7 35.42 Q 250.746 34.454 250.792 33.166 Q 250.838 31.878 250.884 30.498 Q 250.93 29.118 250.953 27.669 A 181.114 181.114 0 0 0 250.975 25.56 A 159.786 159.786 0 0 0 250.976 24.886 A 84.783 84.783 0 0 0 250.971 23.876 Q 250.956 22.634 250.903 21.708 A 28.173 28.173 0 0 0 250.884 21.413 A 14.996 14.996 0 0 0 250.774 20.334 Q 250.7 19.813 250.592 19.361 A 8.142 8.142 0 0 0 250.516 19.067 A 8.602 8.602 0 0 0 249.999 17.674 A 7.674 7.674 0 0 0 249.78 17.25 Q 249.428 16.616 248.914 15.82 A 41.479 41.479 0 0 0 248.584 15.318 Z M 350.98 15.318 L 356.362 11.592 A 38.876 38.876 0 0 1 357.029 12.676 Q 357.341 13.205 357.593 13.675 A 18.291 18.291 0 0 1 357.88 14.237 Q 358.432 15.364 358.662 16.606 A 12.967 12.967 0 0 1 359.144 15.934 Q 359.37 15.638 359.633 15.323 A 21.543 21.543 0 0 1 359.812 15.111 A 12.172 12.172 0 0 1 361.254 13.694 A 13.455 13.455 0 0 1 361.376 13.593 A 11.319 11.319 0 0 1 363.242 12.363 A 12.46 12.46 0 0 1 363.308 12.328 Q 364.366 11.776 365.562 11.592 L 365.976 18.124 A 22.852 22.852 0 0 0 363.349 18.269 A 18.698 18.698 0 0 0 361.79 18.515 Q 360.601 18.756 359.83 19.197 A 3.205 3.205 0 0 0 359.03 19.826 Q 359.076 20.7 359.076 21.735 L 359.076 24.058 Q 359.076 25.53 359.122 27.209 A 191.931 191.931 0 0 0 359.204 29.65 A 168.733 168.733 0 0 0 359.237 30.429 Q 359.306 31.97 359.398 33.304 Q 359.49 34.638 359.582 35.42 L 353.096 35.42 Q 353.142 34.454 353.188 33.166 Q 353.234 31.878 353.28 30.498 Q 353.326 29.118 353.349 27.669 A 181.114 181.114 0 0 0 353.371 25.56 A 159.786 159.786 0 0 0 353.372 24.886 A 84.783 84.783 0 0 0 353.367 23.876 Q 353.352 22.634 353.299 21.708 A 28.173 28.173 0 0 0 353.28 21.413 A 14.996 14.996 0 0 0 353.17 20.334 Q 353.096 19.813 352.988 19.361 A 8.142 8.142 0 0 0 352.912 19.067 A 8.602 8.602 0 0 0 352.395 17.674 A 7.674 7.674 0 0 0 352.176 17.25 Q 351.824 16.616 351.31 15.82 A 41.479 41.479 0 0 0 350.98 15.318 Z M 124.982 3.68 L 131.56 3.22 Q 131.422 4.692 131.353 6.233 Q 131.284 7.774 131.261 9.637 Q 131.238 11.5 131.215 13.8 A 429.21 429.21 0 0 0 131.2 15.936 Q 131.194 17.025 131.193 18.229 A 719.425 719.425 0 0 0 131.192 19.044 L 131.192 24.035 A 390.625 390.625 0 0 0 131.198 26.191 A 314.916 314.916 0 0 0 131.215 28.198 Q 131.238 30.13 131.261 31.878 Q 131.284 33.626 131.33 35.42 L 124.844 35.42 A 243.893 243.893 0 0 1 124.889 33.589 Q 124.921 32.478 124.959 31.533 A 215.741 215.741 0 0 0 125.05 28.937 A 242.445 242.445 0 0 0 125.074 28.037 Q 125.114 26.476 125.153 24.523 A 1012.056 1012.056 0 0 0 125.166 23.874 Q 125.21 21.645 125.212 18.336 A 532.288 532.288 0 0 0 125.212 17.986 Q 125.212 14.444 125.166 10.925 Q 125.12 7.406 124.982 3.68 Z M 66.424 6.808 A 8.682 8.682 0 0 0 65.455 6.865 A 10.937 10.937 0 0 0 64.745 6.969 Q 63.848 7.13 62.928 7.36 A 101.196 101.196 0 0 0 62.861 9.629 Q 62.838 10.825 62.836 12.151 A 163.914 163.914 0 0 0 62.836 12.328 L 62.836 19.044 L 62.836 26.128 Q 62.836 29.118 62.882 31.74 A 4.798 4.798 0 0 0 64.776 32.196 A 5.62 5.62 0 0 0 64.998 32.2 Q 67.344 32.2 69.391 31.464 Q 71.438 30.728 72.956 29.118 A 10.16 10.16 0 0 0 74.532 26.89 A 13.559 13.559 0 0 0 75.348 25.001 Q 76.084 22.891 76.201 20.014 A 27.418 27.418 0 0 0 76.222 18.906 Q 76.222 16.309 75.854 14.359 A 14.073 14.073 0 0 0 75.555 13.087 A 11.516 11.516 0 0 0 74.911 11.351 Q 74.365 10.194 73.6 9.361 Q 72.312 7.958 70.495 7.383 Q 68.678 6.808 66.424 6.808 Z M 35.42 20.654 L 35.42 26.611 Q 35.42 29.256 35.466 31.602 Q 36.34 31.878 37.237 32.039 Q 38.134 32.2 39.054 32.2 A 8.045 8.045 0 0 0 41.192 31.93 A 6.058 6.058 0 0 0 43.769 30.498 A 5.555 5.555 0 0 0 45.381 27.629 A 8.43 8.43 0 0 0 45.586 25.714 A 7.264 7.264 0 0 0 45.452 24.291 A 6.17 6.17 0 0 0 45.241 23.506 Q 44.896 22.494 44.137 21.758 A 4.665 4.665 0 0 0 43.082 20.998 A 6.213 6.213 0 0 0 42.182 20.608 Q 41.205 20.27 39.859 20.208 A 13.527 13.527 0 0 0 39.238 20.194 Q 37.444 20.194 35.42 20.654 Z M 35.512 7.36 Q 35.42 9.246 35.42 11.523 L 35.42 16.836 Q 36.11 16.928 36.731 16.974 Q 37.352 17.02 37.95 17.02 Q 41.255 17.02 42.782 15.676 A 3.755 3.755 0 0 0 42.872 15.594 A 4.734 4.734 0 0 0 44.327 12.717 A 6.692 6.692 0 0 0 44.39 11.776 Q 44.39 10.81 44.137 9.913 Q 43.884 9.016 43.286 8.326 A 3.851 3.851 0 0 0 42.36 7.555 A 5.017 5.017 0 0 0 41.699 7.222 Q 40.931 6.9 39.842 6.829 A 9.9 9.9 0 0 0 39.192 6.808 Q 38.272 6.808 37.375 6.969 A 32.874 32.874 0 0 0 35.991 7.249 A 37.367 37.367 0 0 0 35.512 7.36 Z M 374.072 21.62 L 381.662 21.62 Q 381.662 21.436 381.685 21.16 A 7.038 7.038 0 0 0 381.703 20.896 A 5.327 5.327 0 0 0 381.708 20.654 A 9.407 9.407 0 0 0 381.682 19.97 Q 381.657 19.622 381.606 19.236 A 16.211 16.211 0 0 0 381.57 18.975 Q 381.432 18.032 381.018 17.204 Q 380.604 16.376 379.891 15.801 A 2.5 2.5 0 0 0 378.891 15.321 Q 378.496 15.226 378.028 15.226 A 3.312 3.312 0 0 0 376.635 15.511 Q 375.926 15.835 375.409 16.53 A 4.202 4.202 0 0 0 375.245 16.767 Q 374.35 18.162 374.114 21.008 A 22.643 22.643 0 0 0 374.072 21.62 Z M 201.158 31.74 Q 202.63 31.74 203.665 30.682 A 3.594 3.594 0 0 0 204.691 28.313 A 4.778 4.778 0 0 0 204.7 28.014 A 3.733 3.733 0 0 0 204.584 27.057 A 2.718 2.718 0 0 0 203.872 25.806 A 2.725 2.725 0 0 0 202.567 25.09 Q 202.141 24.985 201.64 24.979 A 5.157 5.157 0 0 0 201.572 24.978 A 4.043 4.043 0 0 0 200.565 25.097 A 2.842 2.842 0 0 0 199.18 25.898 Q 198.338 26.784 198.308 28.311 A 5.795 5.795 0 0 0 198.306 28.428 A 4.926 4.926 0 0 0 198.4 29.419 Q 198.527 30.038 198.826 30.516 A 2.832 2.832 0 0 0 199.065 30.843 A 2.484 2.484 0 0 0 200.717 31.714 A 3.564 3.564 0 0 0 201.158 31.74 Z" vector-effect="non-scaling-stroke"/></g></svg>